<svg xmlns="http://www.w3.org/2000/svg" xmlns:xlink="http://www.w3.org/1999/xlink" width="1080" zoomAndPan="magnify" viewBox="0 0 810 809.999993" height="1080" preserveAspectRatio="xMidYMid meet" version="1.0"><defs><g/></defs><rect x="-81" width="972" fill="#ffffff" y="-80.999999" height="971.999992" fill-opacity="1"/><rect x="-81" width="972" fill="#ffffff" y="-80.999999" height="971.999992" fill-opacity="1"/><g fill="#000000" fill-opacity="1"><g transform="translate(254.708118, 642.334417)"><g><path d="M 259.3125 -396.703125 C 270.414062 -385.609375 275.375 -370.539062 274.1875 -351.5 C 272.207031 -336.039062 267.25 -322.363281 259.3125 -310.46875 L 123.71875 -107.0625 C 141.957031 -108.644531 155.4375 -110.425781 164.15625 -112.40625 C 186.363281 -116.769531 211.34375 -124.109375 239.09375 -134.421875 C 239.882812 -134.816406 241.273438 -135.015625 243.265625 -135.015625 C 246.828125 -135.015625 249.796875 -133.820312 252.171875 -131.4375 C 254.554688 -129.0625 255.75 -126.085938 255.75 -122.515625 L 253.375 -36.875 C 253.375 -30.53125 250.398438 -26.765625 244.453125 -25.578125 C 211.929688 -16.453125 179.8125 -9.515625 148.09375 -4.765625 C 127.082031 -1.585938 107.0625 0 88.03125 0 C 62.644531 0 42.023438 -4.554688 26.171875 -13.671875 C 4.753906 -25.566406 -5.953125 -42.023438 -5.953125 -63.046875 C -5.953125 -77.710938 -0.597656 -96.941406 10.109375 -120.734375 C 12.484375 -125.097656 15.457031 -130.15625 19.03125 -135.90625 C 22.601562 -141.65625 26.171875 -147.109375 29.734375 -152.265625 L 49.953125 -183.1875 C 59.472656 -196.664062 66.414062 -206.773438 70.78125 -213.515625 L 132.625 -304.515625 L 23.796875 -281.328125 L 20.8125 -280.734375 C 17.25 -280.734375 14.273438 -282.019531 11.890625 -284.59375 C 9.515625 -287.175781 8.523438 -290.050781 8.921875 -293.21875 L 10.703125 -378.859375 C 10.703125 -385.609375 14.269531 -389.578125 21.40625 -390.765625 L 161.1875 -411.578125 C 179.03125 -413.554688 191.914062 -414.546875 199.84375 -414.546875 C 227.59375 -414.546875 247.414062 -408.597656 259.3125 -396.703125 Z M 24.984375 -370.53125 C 27.359375 -372.519531 28.546875 -374.304688 28.546875 -375.890625 C 28.546875 -377.472656 28.148438 -378.265625 27.359375 -378.265625 C 26.171875 -378.660156 25.378906 -379.457031 24.984375 -380.65625 C 24.984375 -378.664062 23.789062 -377.273438 21.40625 -376.484375 C 22.195312 -375.691406 22.988281 -374.703125 23.78125 -373.515625 C 24.582031 -372.328125 24.984375 -371.332031 24.984375 -370.53125 Z M 36.875 -377.671875 L 34.5 -377.671875 L 34.5 -375.890625 L 36.875 -375.890625 Z M 34.5 -355.671875 L 30.921875 -356.265625 L 30.921875 -355.078125 L 33.3125 -354.484375 Z M 86.828125 -339.609375 L 90.40625 -339.609375 L 90.40625 -341.984375 L 86.828125 -341.984375 Z M 142.75 -340.203125 L 140.359375 -340.203125 L 140.359375 -337.234375 L 142.75 -337.234375 Z M 66.609375 -338.421875 C 66.609375 -338.023438 66.3125 -336.929688 65.71875 -335.140625 C 65.125 -333.359375 65.222656 -331.875 66.015625 -330.6875 C 68.796875 -330.6875 70.78125 -330.488281 71.96875 -330.09375 L 74.34375 -332.46875 L 74.34375 -335.453125 L 70.1875 -338.421875 Z M 127.28125 -333.65625 C 128.070312 -334.851562 128.269531 -335.648438 127.875 -336.046875 L 127.875 -338.421875 L 123.71875 -338.421875 L 123.71875 -334.265625 C 123.71875 -333.859375 124.3125 -333.65625 125.5 -333.65625 Z M 83.859375 -328.3125 C 83.859375 -329.894531 84.550781 -331.179688 85.9375 -332.171875 C 87.332031 -333.160156 88.226562 -333.859375 88.625 -334.265625 L 86.234375 -335.453125 L 85.640625 -336.046875 C 82.867188 -335.253906 80.785156 -334.0625 79.390625 -332.46875 C 78.003906 -330.882812 77.113281 -329.894531 76.71875 -329.5 L 80.296875 -327.71875 L 83.859375 -327.71875 Z M 63.640625 -334.859375 L 58.28125 -334.859375 L 58.28125 -333.0625 L 63.640625 -333.0625 Z M 99.328125 -334.859375 C 97.742188 -333.660156 96.953125 -332.664062 96.953125 -331.875 L 108.84375 -329.5 L 109.4375 -333.0625 C 108.25 -333.0625 107.257812 -333.257812 106.46875 -333.65625 C 104.875 -334.457031 102.492188 -334.859375 99.328125 -334.859375 Z M 179.625 -331.28125 L 176.046875 -331.875 L 175.453125 -330.09375 L 179.03125 -328.90625 Z M 75.53125 -328.3125 L 67.203125 -330.09375 L 67.203125 -326.53125 Z M 84.453125 -319.984375 C 84.847656 -320.378906 85.046875 -320.972656 85.046875 -321.765625 L 83.265625 -323.546875 L 79.703125 -324.140625 L 78.515625 -323.546875 C 78.515625 -323.546875 78.414062 -323.445312 78.21875 -323.25 C 78.019531 -323.050781 77.921875 -322.953125 77.921875 -322.953125 C 77.515625 -322.953125 77.113281 -322.554688 76.71875 -321.765625 C 76.71875 -320.179688 77.117188 -319.390625 77.921875 -319.390625 L 78.515625 -318.203125 L 83.265625 -317.609375 L 83.265625 -318.796875 C 83.265625 -318.796875 83.363281 -318.894531 83.5625 -319.09375 C 83.757812 -319.289062 83.859375 -319.390625 83.859375 -319.390625 Z M 92.1875 -322.359375 L 91 -322.359375 C 91 -322.359375 90.898438 -322.457031 90.703125 -322.65625 C 90.503906 -322.851562 90.40625 -322.953125 90.40625 -322.953125 L 89.21875 -323.546875 L 88.03125 -323.546875 C 86.4375 -321.960938 85.640625 -320.578125 85.640625 -319.390625 C 85.640625 -318.203125 87.03125 -317.015625 89.8125 -315.828125 L 92.1875 -318.203125 Z M 133.234375 -320.578125 C 133.234375 -319.390625 134.023438 -318.203125 135.609375 -317.015625 C 136.398438 -317.804688 136.796875 -319.191406 136.796875 -321.171875 L 135.609375 -321.171875 L 134.421875 -320.578125 Z M 112.40625 -315.828125 C 109.632812 -316.617188 106.859375 -317.015625 104.078125 -317.015625 L 109.4375 -317.015625 C 107.457031 -319.390625 105.671875 -320.578125 104.078125 -320.578125 L 103.484375 -317.015625 L 104.078125 -317.015625 C 101.703125 -317.015625 99.921875 -315.625 98.734375 -312.84375 L 102.296875 -312.25 C 103.085938 -311.457031 105.070312 -311.0625 108.25 -311.0625 C 110.625 -311.0625 112.007812 -311.851562 112.40625 -313.4375 Z M 73.15625 -314.625 L 73.15625 -317.015625 L 69.59375 -317.015625 L 69.59375 -314.625 Z M 74.34375 -308.09375 L 73.75 -308.6875 L 71.375 -309.875 L 70.1875 -308.6875 L 69.59375 -307.5 L 70.78125 -306.90625 C 71.570312 -306.101562 72.363281 -306.101562 73.15625 -306.90625 Z M 155.828125 -274.1875 C 158.597656 -275.375 160.1875 -276.5625 160.59375 -277.75 L 154.640625 -281.921875 C 154.640625 -279.929688 154.242188 -278.144531 153.453125 -276.5625 C 155.035156 -274.976562 155.828125 -274.1875 155.828125 -274.1875 Z M 140.359375 -265.859375 C 138.773438 -265.859375 137.984375 -266.253906 137.984375 -267.046875 L 134.421875 -265.265625 C 134.421875 -263.679688 134.816406 -262.691406 135.609375 -262.296875 C 136.796875 -263.085938 137.984375 -263.085938 139.171875 -262.296875 Z M 247.421875 -109.4375 C 249.398438 -108.644531 250.988281 -108.84375 252.1875 -110.03125 L 249.796875 -111.21875 C 248.609375 -111.21875 247.816406 -111.414062 247.421875 -111.8125 Z M 201.03125 -107.0625 C 201.425781 -107.0625 201.820312 -106.960938 202.21875 -106.765625 C 202.613281 -106.566406 203.007812 -106.46875 203.40625 -106.46875 C 204.195312 -105.675781 204.988281 -105.675781 205.78125 -106.46875 L 205.78125 -108.84375 L 201.03125 -108.84375 Z M 243.859375 -107.65625 C 243.859375 -107.65625 243.957031 -107.554688 244.15625 -107.359375 C 244.351562 -107.160156 244.453125 -107.0625 244.453125 -107.0625 L 245.046875 -107.0625 L 244.453125 -108.84375 Z M 129.65625 -69.59375 L 130.84375 -69.59375 L 130.84375 -73.15625 L 129.65625 -73.15625 Z M 193.890625 -68.390625 L 194.484375 -67.203125 L 196.265625 -68.390625 L 196.265625 -69 Z M 191.515625 -67.796875 C 188.734375 -68.597656 187.34375 -68.398438 187.34375 -67.203125 C 187.34375 -66.410156 188.140625 -66.015625 189.734375 -66.015625 C 190.921875 -66.015625 191.515625 -66.210938 191.515625 -66.609375 Z M 154.640625 -64.234375 L 157.015625 -64.828125 L 157.015625 -66.015625 L 154.640625 -64.828125 Z M 176.640625 -64.234375 L 178.4375 -64.234375 L 178.4375 -66.015625 L 176.640625 -66.015625 Z M 224.234375 -46.984375 L 224.828125 -46.390625 L 226.609375 -46.984375 L 226.609375 -47.578125 Z M 114.796875 -32.125 C 115.585938 -32.125 116.179688 -31.921875 116.578125 -31.515625 L 134.421875 -31.515625 C 134.421875 -31.117188 135.210938 -30.921875 136.796875 -30.921875 L 137.984375 -30.328125 C 140.765625 -30.722656 142.15625 -30.921875 142.15625 -30.921875 C 142.15625 -30.128906 142.351562 -29.734375 142.75 -29.734375 C 145.914062 -29.734375 149.484375 -30.328125 153.453125 -31.515625 Z M 114.796875 -32.125 "/></g></g></g></svg>